<svg width="41" height="41" viewBox="0 0 41 41" fill="none" xmlns="http://www.w3.org/2000/svg">
<circle cx="20.5877" cy="20.605" r="20" fill="#FFF175"/>
<path d="M34.0044 27.855H26.5877V27.4244V26.5633L34.0044 27.855Z" fill="black" stroke="black" stroke-linecap="round"/>
<path d="M10.5877 11.605V26.605C10.8604 27.8231 11.4146 28.1454 13.0877 28.105H34.0877V27.605L26.5877 26.105V11.605C26.3111 9.76988 25.7823 9.09973 23.5877 9.10498H13.0877C11.1739 9.34366 10.6041 9.8734 10.5877 11.605Z" stroke="black"/>
<path d="M10.5877 12.605C16.7649 11.8105 20.2755 11.8862 26.5877 12.605" stroke="black"/>
<path d="M10.5877 20.605C16.9755 21.8007 20.4694 21.7166 26.5877 20.605" stroke="black"/>
<path d="M13.5877 25.105C13.5877 24.5527 14.0355 24.105 14.5877 24.105C15.14 24.105 15.5877 24.5527 15.5877 25.105C15.5877 25.6573 15.14 26.105 14.5877 26.105C14.0355 26.105 13.5877 25.6573 13.5877 25.105Z" stroke="black"/>
<path d="M21.3794 25.105C21.3794 24.5527 21.8271 24.105 22.3794 24.105C22.9317 24.105 23.3794 24.5527 23.3794 25.105C23.3794 25.6573 22.9317 26.105 22.3794 26.105C21.8271 26.105 21.3794 25.6573 21.3794 25.105Z" stroke="black"/>
<path d="M15.0824 28.5259H12.8138V29.6351C12.8138 30.593 15.0824 30.593 15.0824 29.6351V28.5259Z" fill="black" stroke="black"/>
<path d="M24.1595 28.5246H21.8909V29.6338C21.8909 30.5916 24.1595 30.5916 24.1595 29.6338V28.5246Z" fill="black" stroke="black"/>
<path d="M34.492 27.2656L27.0307 25.7532V28.0218L34.492 28.2739V27.2656Z" fill="black" stroke="black"/>
</svg>
