<svg width="40" height="40" viewBox="0 0 40 40" fill="none" xmlns="http://www.w3.org/2000/svg">
<circle cx="20" cy="20" r="20" fill="#FFF175"/>
<circle cx="19.825" cy="9.275" r="2.275" stroke="#020202" stroke-linecap="round"/>
<path d="M20.5833 17.6167H25.1333" stroke="#020202" stroke-linecap="round"/>
<path d="M19.825 13.825L20.5057 19.2709C20.7667 21.3584 22.5413 22.925 24.6451 22.925V22.925C25.9123 22.925 27.1108 23.501 27.9025 24.4906L31.2 28.6125" stroke="#020202" stroke-linecap="round"/>
<path d="M26.2246 25.2967C25.8154 26.4011 25.1272 27.3808 24.2272 28.1405C23.3272 28.9001 22.2459 29.414 21.0884 29.632C19.931 29.8501 18.7369 29.7649 17.6221 29.3847C16.5074 29.0046 15.51 28.3424 14.7269 27.4626C13.9439 26.5829 13.4018 25.5154 13.1534 24.3641C12.9051 23.2128 12.9589 22.0168 13.3097 20.8925C13.6604 19.7681 14.2962 18.7537 15.1551 17.9478C16.014 17.1419 17.0668 16.572 18.2112 16.2935" stroke="#020202" stroke-linecap="round"/>
</svg>
