<svg width="22" height="22" viewBox="0 0 22 22" fill="none" xmlns="http://www.w3.org/2000/svg">
<path d="M3.31702 10.4334C3.32478 6.48896 6.53719 3.28774 10.4966 3.28774C14.4561 3.28774 17.6559 6.48896 17.6481 10.4334C17.6442 12.4007 16.8202 14.37 15.4144 16.241C14.115 17.9705 12.3481 19.5749 10.3824 20.9551C6.26191 18.0596 3.30948 14.2642 3.31702 10.4334Z" stroke="#0C6304" stroke-width="1.72203"/>
<path d="M9.48615 10.4736C9.48727 9.90491 9.9508 9.44098 10.5251 9.44098C11.0994 9.44098 11.5611 9.90491 11.5599 10.4736C11.5588 11.0423 11.0953 11.5062 10.521 11.5062C9.94674 11.5062 9.48503 11.0423 9.48615 10.4736Z" stroke="#0C6304" stroke-width="1.37763"/>
<path d="M10.8423 20.7761C10.2189 13.1153 10.2563 10.2453 17.9719 10.8631" stroke="#0C6304" stroke-width="0.172203"/>
<path d="M3.12286 10.8768C10.7196 10.2399 10.651 13.0603 10.0233 20.758" stroke="#0C6304" stroke-width="0.172203"/>
<path d="M10.1076 3.09264C10.7241 10.6692 10.7554 10.6692 3.12459 10.0582" stroke="#0C6304" stroke-width="0.172203"/>
<path d="M17.9736 10.0446C10.2925 10.6745 10.2925 10.7057 10.9268 3.09264" stroke="#0C6304" stroke-width="0.172203"/>
<path d="M5.56236 16.0135C10.5198 10.1885 10.4976 10.1664 15.4715 16.0039" stroke="#0C6304" stroke-width="0.172203"/>
<path d="M4.9812 5.53746C10.8133 10.4702 10.8355 10.448 4.97145 15.4201" stroke="#0C6304" stroke-width="0.172203"/>
<path d="M15.4824 4.93628C10.5259 10.7636 10.5481 10.7857 5.57518 4.94594" stroke="#0C6304" stroke-width="0.172203"/>
<path d="M16.055 15.4282C10.212 10.4772 10.1897 10.4994 16.0648 5.50897" stroke="#0C6304" stroke-width="0.172203"/>
</svg>
