<svg width="61" height="56" viewBox="0 0 61 56" fill="none" xmlns="http://www.w3.org/2000/svg">
<g filter="url(#filter0_d_1_213)">
<path fill-rule="evenodd" clip-rule="evenodd" d="M4.85297 22.3375C4.93507 28.2579 7.54032 33.5507 11.6288 37.2019C13.0173 42.945 18.2297 47.1741 24.387 47.0887C28.2904 47.0346 31.7662 45.2577 34.1008 42.4917C35.8189 43.059 37.6593 43.3546 39.5701 43.3281C48.7907 43.2003 56.1618 35.6218 56.034 26.4012C55.9169 17.9578 49.5523 11.0653 41.4002 10.0615C37.6601 4.96022 31.5998 1.68452 24.8033 1.77877C13.6297 1.93372 4.69767 11.1382 4.85297 22.3375Z" fill="#FABA28"/>
</g>
<path d="M40.6678 22.3952C40.8424 30.6746 34.5724 37.4728 26.7392 37.6534C18.9059 37.834 12.3554 31.3315 12.1808 23.0521C12.0062 14.7727 18.2762 7.97461 26.1094 7.79398C33.9427 7.61335 40.4931 14.1158 40.6678 22.3952Z" stroke="black" stroke-width="1.599"/>
<path d="M28.9415 22.587C28.9741 24.1287 27.8111 25.3567 26.4046 25.3892C24.9981 25.4216 23.7845 24.2484 23.752 22.7067C23.7195 21.165 24.8824 19.937 26.2889 19.9046C27.6954 19.8722 28.909 21.0454 28.9415 22.587Z" stroke="black" stroke-width="1.2792"/>
<path d="M25.2837 8.06545C26.7976 23.0875 26.8569 23.0861 12.3691 22.2059" stroke="black" stroke-width="0.1599"/>
<path d="M40.1975 21.5371C25.9891 23.1165 25.9904 23.1785 26.8194 8.02999" stroke="black" stroke-width="0.1599"/>
<path d="M27.4585 37.1285C25.9612 22.2715 25.9026 22.2729 40.2312 23.1434" stroke="black" stroke-width="0.1599"/>
<path d="M12.4028 23.8119C26.7696 22.2426 26.7683 22.1813 25.9231 37.1639" stroke="black" stroke-width="0.1599"/>
<path d="M35.3923 11.5552C26.3662 23.2165 26.4087 23.2591 16.8254 12.0023" stroke="black" stroke-width="0.1599"/>
<path d="M36.9555 32.1046C25.803 22.6667 25.7623 22.7112 36.5279 12.6906" stroke="black" stroke-width="0.1599"/>
<path d="M17.3024 33.739C26.3285 22.0776 26.2859 22.035 35.8693 33.2918" stroke="black" stroke-width="0.1599"/>
<path d="M15.7654 13.1608C26.9503 22.6261 26.9912 22.5815 16.1943 32.6311" stroke="black" stroke-width="0.1599"/>
<path d="M45.559 31.1926C45.6272 34.4275 43.1808 37.0555 40.159 37.1252C37.1372 37.1948 34.5823 34.6822 34.5141 31.4473C34.4459 28.2124 36.8923 25.5844 39.9141 25.5147C42.9359 25.445 45.4907 27.9577 45.559 31.1926Z" fill="#FABA28" stroke="black" stroke-width="1.3546"/>
<path d="M40.7961 31.2697C40.8065 31.7633 40.4373 32.1304 40.0228 32.14C39.6084 32.1495 39.2241 31.7998 39.2137 31.3062C39.2032 30.8127 39.5724 30.4456 39.9869 30.436C40.4014 30.4264 40.7857 30.7762 40.7961 31.2697Z" fill="#FABA28" stroke="black" stroke-width="1.08368"/>
<path d="M39.5672 25.2786C40.1912 31.4696 40.2156 31.469 34.2447 31.1063" stroke="black" stroke-width="0.13546"/>
<path d="M45.7136 30.8307C39.8579 31.4816 39.8584 31.5072 40.2001 25.264" stroke="black" stroke-width="0.13546"/>
<path d="M40.4628 37.2562C39.8457 31.1332 39.8216 31.1338 45.7268 31.4926" stroke="black" stroke-width="0.13546"/>
<path d="M34.258 31.768C40.179 31.1212 40.1784 31.096 39.8301 37.2707" stroke="black" stroke-width="0.13546"/>
<path d="M43.7332 26.7167C40.0133 31.5227 40.0309 31.5402 36.0813 26.901" stroke="black" stroke-width="0.13546"/>
<path d="M44.377 35.1859C39.7807 31.2963 39.764 31.3146 44.2008 27.1848" stroke="black" stroke-width="0.13546"/>
<path d="M36.2781 35.8596C39.998 31.0536 39.9805 31.0361 43.9301 35.6753" stroke="black" stroke-width="0.13546"/>
<path d="M35.6445 27.3785C40.2541 31.2794 40.2709 31.261 35.8212 35.4028" stroke="black" stroke-width="0.13546"/>
<defs>
<filter id="filter0_d_1_213" x="0.850983" y="1.77679" width="59.1846" height="53.3132" filterUnits="userSpaceOnUse" color-interpolation-filters="sRGB">
<feFlood flood-opacity="0" result="BackgroundImageFix"/>
<feColorMatrix in="SourceAlpha" type="matrix" values="0 0 0 0 0 0 0 0 0 0 0 0 0 0 0 0 0 0 127 0" result="hardAlpha"/>
<feOffset dy="4"/>
<feGaussianBlur stdDeviation="2"/>
<feComposite in2="hardAlpha" operator="out"/>
<feColorMatrix type="matrix" values="0 0 0 0 0 0 0 0 0 0 0 0 0 0 0 0 0 0 0.25 0"/>
<feBlend mode="normal" in2="BackgroundImageFix" result="effect1_dropShadow_1_213"/>
<feBlend mode="normal" in="SourceGraphic" in2="effect1_dropShadow_1_213" result="shape"/>
</filter>
</defs>
</svg>
