<svg width="44" height="43" viewBox="0 0 44 43" fill="none" xmlns="http://www.w3.org/2000/svg">
<g filter="url(#filter0_d_1_226)">
<rect x="6" width="32" height="32" rx="5.33333" fill="#FFF175"/>
<path fill-rule="evenodd" clip-rule="evenodd" d="M12 6.66667C11.6318 6.66667 11.3333 6.96515 11.3333 7.33334C11.3333 7.70153 11.6318 8.00001 12 8.00001H32C32.3682 8.00001 32.6667 7.70153 32.6667 7.33334C32.6667 6.96515 32.3682 6.66667 32 6.66667H12ZM12 17.3333C11.6318 17.3333 11.3333 17.6318 11.3333 18C11.3333 18.3682 11.6318 18.6667 12 18.6667H32C32.3682 18.6667 32.6667 18.3682 32.6667 18C32.6667 17.6318 32.3682 17.3333 32 17.3333H12ZM11.3333 23.3333C11.3333 22.9651 11.6318 22.6667 12 22.6667H32C32.3682 22.6667 32.6667 22.9651 32.6667 23.3333C32.6667 23.7015 32.3682 24 32 24H12C11.6318 24 11.3333 23.7015 11.3333 23.3333ZM12 12C11.6318 12 11.3333 12.2985 11.3333 12.6667C11.3333 13.0349 11.6318 13.3333 12 13.3333H32C32.3682 13.3333 32.6667 13.0349 32.6667 12.6667C32.6667 12.2985 32.3682 12 32 12H12Z" fill="black"/>
</g>
<defs>
<filter id="filter0_d_1_226" x="0.666667" y="0" width="42.6667" height="42.6667" filterUnits="userSpaceOnUse" color-interpolation-filters="sRGB">
<feFlood flood-opacity="0" result="BackgroundImageFix"/>
<feColorMatrix in="SourceAlpha" type="matrix" values="0 0 0 0 0 0 0 0 0 0 0 0 0 0 0 0 0 0 127 0" result="hardAlpha"/>
<feOffset dy="5.33333"/>
<feGaussianBlur stdDeviation="2.66667"/>
<feComposite in2="hardAlpha" operator="out"/>
<feColorMatrix type="matrix" values="0 0 0 0 0 0 0 0 0 0 0 0 0 0 0 0 0 0 0.25 0"/>
<feBlend mode="normal" in2="BackgroundImageFix" result="effect1_dropShadow_1_226"/>
<feBlend mode="normal" in="SourceGraphic" in2="effect1_dropShadow_1_226" result="shape"/>
</filter>
</defs>
</svg>
