<svg width="32" height="32" viewBox="0 0 32 32" fill="none" xmlns="http://www.w3.org/2000/svg">
<g filter="url(#filter0_i_17_336)">
<path d="M26.6667 0H5.33333C2.38781 0 0 2.38781 0 5.33333V26.6667C0 29.6122 2.38781 32 5.33333 32H26.6667C29.6122 32 32 29.6122 32 26.6667V5.33333C32 2.38781 29.6122 0 26.6667 0Z" fill="#FFF175"/>
<path fill-rule="evenodd" clip-rule="evenodd" d="M6.00001 6.6666C5.63181 6.6666 5.33331 6.96508 5.33331 7.33327C5.33331 7.70146 5.63181 7.99993 6.00001 7.99993H26C26.3682 7.99993 26.6667 7.70146 26.6667 7.33327C26.6667 6.96508 26.3682 6.6666 26 6.6666H6.00001ZM6.00001 17.3333C5.63181 17.3333 5.33331 17.6317 5.33331 17.9999C5.33331 18.3681 5.63181 18.6666 6.00001 18.6666H26C26.3682 18.6666 26.6667 18.3681 26.6667 17.9999C26.6667 17.6317 26.3682 17.3333 26 17.3333H6.00001ZM5.33331 23.3333C5.33331 22.9651 5.63181 22.6666 6.00001 22.6666H26C26.3682 22.6666 26.6667 22.9651 26.6667 23.3333C26.6667 23.7014 26.3682 23.9999 26 23.9999H6.00001C5.63181 23.9999 5.33331 23.7014 5.33331 23.3333ZM6.00001 11.9999C5.63181 11.9999 5.33331 12.2984 5.33331 12.6666C5.33331 13.0348 5.63181 13.3333 6.00001 13.3333H26C26.3682 13.3333 26.6667 13.0348 26.6667 12.6666C26.6667 12.2984 26.3682 11.9999 26 11.9999H6.00001Z" fill="black"/>
</g>
<defs>
<filter id="filter0_i_17_336" x="0" y="0" width="32" height="37.3333" filterUnits="userSpaceOnUse" color-interpolation-filters="sRGB">
<feFlood flood-opacity="0" result="BackgroundImageFix"/>
<feBlend mode="normal" in="SourceGraphic" in2="BackgroundImageFix" result="shape"/>
<feColorMatrix in="SourceAlpha" type="matrix" values="0 0 0 0 0 0 0 0 0 0 0 0 0 0 0 0 0 0 127 0" result="hardAlpha"/>
<feOffset dy="5.33333"/>
<feGaussianBlur stdDeviation="2.66667"/>
<feComposite in2="hardAlpha" operator="arithmetic" k2="-1" k3="1"/>
<feColorMatrix type="matrix" values="0 0 0 0 0 0 0 0 0 0 0 0 0 0 0 0 0 0 0.25 0"/>
<feBlend mode="normal" in2="shape" result="effect1_innerShadow_17_336"/>
</filter>
</defs>
</svg>
