<svg width="47" height="47" viewBox="0 0 47 47" fill="none" xmlns="http://www.w3.org/2000/svg">
<circle cx="23.5" cy="23.5" r="23.5" fill="#8E8E8E"/>
<path d="M34.8833 26.4589C34.8708 32.8153 29.7836 37.9372 23.5586 37.9372C17.3335 37.9372 12.2665 32.8153 12.279 26.4589C12.2852 23.292 13.5902 20.131 15.8029 17.1375C17.8533 14.3635 20.641 11.7932 23.7391 9.58474C30.2206 14.2086 34.8954 20.292 34.8833 26.4589Z" stroke="white" stroke-width="2.59911"/>
<path d="M25.1873 26.3948C25.1854 27.3515 24.4228 28.1024 23.5142 28.1024C22.6056 28.1024 21.8459 27.3515 21.8478 26.3948C21.8497 25.4381 22.6123 24.6872 23.5209 24.6872C24.4295 24.6872 25.1891 25.4381 25.1873 26.3948Z" stroke="white" stroke-width="2.07929"/>
<path d="M23.0168 9.95276C23.9951 22.1787 23.9361 26.7591 11.8227 25.7731" stroke="white" stroke-width="0.259911"/>
<path d="M35.1358 25.7514C23.209 26.7678 23.3168 22.2667 24.3026 9.98192" stroke="white" stroke-width="0.259911"/>
<path d="M24.1695 38.1739C23.2019 26.0823 23.1528 26.0823 35.1332 27.0574" stroke="white" stroke-width="0.259911"/>
<path d="M11.8199 27.0791C23.8793 26.0739 23.8794 26.0241 22.8831 38.1739" stroke="white" stroke-width="0.259911"/>
<path d="M31.3062 17.5536C23.5227 26.8498 23.5575 26.8851 15.7489 17.569" stroke="white" stroke-width="0.259911"/>
<path d="M32.2179 34.2722C23.0618 26.4 23.0268 26.4354 32.2337 18.5005" stroke="white" stroke-width="0.259911"/>
<path d="M15.7311 35.2318C23.513 25.932 23.4782 25.8966 31.2854 35.2163" stroke="white" stroke-width="0.259911"/>
<path d="M14.8327 18.4876C24.006 26.389 24.041 26.3535 14.8168 34.3178" stroke="white" stroke-width="0.259911"/>
</svg>
