<svg width="25" height="25" viewBox="0 0 25 25" fill="none" xmlns="http://www.w3.org/2000/svg">
<path fill-rule="evenodd" clip-rule="evenodd" d="M13.1917 2.8263C13.1933 2.59094 13.2039 0.908149 13.1916 0.395702C13.1783 -0.155726 11.7955 -0.107526 11.8027 0.395704C11.8095 0.873064 11.8034 2.65659 11.8027 2.8387C6.76867 3.23748 2.80785 7.44895 2.80785 12.5855C2.80785 17.7238 6.77129 21.9363 11.8077 22.3327C11.8051 22.74 11.7972 24.1571 11.8084 24.6148C11.8217 25.1516 13.2045 25.1047 13.1973 24.6148C13.1912 24.2001 13.1955 22.7724 13.1969 22.3444C18.0042 22.0479 21.8716 18.2776 22.3199 13.5129C22.7216 13.5155 24.1527 13.5238 24.6137 13.5122C25.152 13.4986 25.1049 12.0821 24.6137 12.0895C24.2022 12.0957 22.7968 12.0915 22.3509 12.09C22.1029 7.12125 18.1458 3.12932 13.1917 2.8263ZM21.1061 12.5855C21.1061 17.2913 17.2913 21.1061 12.5856 21.1061C7.87978 21.1061 4.06498 17.2913 4.06498 12.5855C4.06498 7.87974 7.87978 4.06494 12.5856 4.06494C17.2913 4.06494 21.1061 7.87974 21.1061 12.5855ZM0.388005 12.0929C0.926367 12.0807 2.78764 12.099 2.78764 12.099L2.78416 13.5217C2.78416 13.5217 0.875823 13.5094 0.384529 13.5156C-0.106764 13.5217 -0.150357 12.1051 0.388005 12.0929ZM12.5856 17.0139C14.6809 15.5831 16.7761 13.6613 16.7761 11.2907C16.7761 8.92007 14.9 6.9983 12.5856 6.9983C10.2713 6.9983 8.39519 8.92007 8.39519 11.2907C8.39519 13.6613 10.4904 15.5831 12.5856 17.0139Z" fill="#D1D1D1"/>
</svg>
