<svg width="22" height="22" viewBox="0 0 22 22" fill="none" xmlns="http://www.w3.org/2000/svg">
<path d="M3.31701 10.4336C3.32477 6.48916 6.53718 3.28793 10.4966 3.28794C14.4561 3.28794 17.6559 6.48916 17.6481 10.4336C17.6442 12.4009 16.8202 14.3702 15.4144 16.2412C14.115 17.9707 12.3481 19.5751 10.3824 20.9553C6.2619 18.0598 3.30948 14.2644 3.31701 10.4336Z" stroke="#FC0000" stroke-width="1.72203"/>
<path d="M9.48614 10.4738C9.48726 9.90511 9.95079 9.44118 10.5251 9.44118C11.0993 9.44118 11.5611 9.90511 11.5599 10.4738C11.5588 11.0425 11.0953 11.5064 10.521 11.5064C9.94673 11.5064 9.48502 11.0425 9.48614 10.4738Z" stroke="#FC0000" stroke-width="1.37763"/>
<path d="M10.8423 20.7763C10.2189 13.1155 10.2563 10.2455 17.9719 10.8632" stroke="#FC0000" stroke-width="0.172203"/>
<path d="M3.12285 10.877C10.7196 10.2401 10.651 13.0605 10.0233 20.7582" stroke="#FC0000" stroke-width="0.172203"/>
<path d="M10.1076 3.09284C10.7241 10.6694 10.7554 10.6694 3.12459 10.0584" stroke="#FC0000" stroke-width="0.172203"/>
<path d="M17.9736 10.0448C10.2925 10.6747 10.2925 10.7059 10.9268 3.09283" stroke="#FC0000" stroke-width="0.172203"/>
<path d="M5.56235 16.0137C10.5198 10.1887 10.4976 10.1666 15.4714 16.0041" stroke="#FC0000" stroke-width="0.172203"/>
<path d="M4.98119 5.53766C10.8133 10.4704 10.8355 10.4482 4.97144 15.4203" stroke="#FC0000" stroke-width="0.172203"/>
<path d="M15.4824 4.93648C10.5259 10.7638 10.5481 10.7859 5.57518 4.94614" stroke="#FC0000" stroke-width="0.172203"/>
<path d="M16.055 15.4284C10.212 10.4774 10.1897 10.4996 16.0648 5.50917" stroke="#FC0000" stroke-width="0.172203"/>
</svg>
